<svg id="Capa_1" data-name="Capa 1" xmlns="http://www.w3.org/2000/svg" width="50" height="50" viewBox="0 0 1351.13 631.25"><defs><style>.cls-1{fill:#3b83f6;}.cls-2{fill-opacity:#fff;fill-opacity:0;}</style></defs><title>2logo-caf-2021</title><path class="cls-1" d="M1425.57,750c0,87.48-76.25,166.69-199.38,223.87a819.26,819.26,0,0,1-100.52,38.49l28-72.62q60.77-157.53,121.46-315c2.68-6.89-5.51-12.91-11.23-8.27l-328,261.56L861.5,937.42a.56.56,0,0,1-.29.14,7.2,7.2,0,0,1-11.45-6.37l5.07-65.81,24.86-323.53a7.22,7.22,0,0,0-12.75-5.14L602,852.33l-48.12,57.33-.07.07a7.22,7.22,0,0,1-12.61-3.4l-9.42-51.1L476.3,552a.29.29,0,0,0-.07-.22,7.24,7.24,0,0,0-13.7-1.45Q389.38,716.56,316.06,883.28,295.84,929,275.77,974.74c-36.17-16.67-68.35-35.15-95.74-55.3-66.9-48.92-105.6-107-105.6-169.44,0-174.3,302.51-315.62,675.61-315.62S1425.57,575.7,1425.57,750Z" transform="translate(-74.43 -434.38)"/><path class="cls-2" d="M1275.18,624.77q-60.66,157.41-121.46,315l-28,72.62h-.07C1018.19,1046,889,1065.62,750,1065.62c-184.81,0-352.3-34.71-474.2-90.88h-.07q20.1-45.66,40.29-91.46,73.17-166.44,146.47-332.95a7.24,7.24,0,0,1,13.7,1.45.29.29,0,0,1,.07.22l55.52,303.23,9.42,51.1a7.22,7.22,0,0,0,12.61,3.4l.07-.07L602,852.33l264.9-315.62a7.22,7.22,0,0,1,12.75,5.14L854.83,865.38l-5.07,65.81a7.2,7.2,0,0,0,11.45,6.37.56.56,0,0,0,.29-.14l74.43-59.36L1264,616.5C1269.67,611.86,1277.86,617.88,1275.18,624.77Z" transform="translate(-74.43 -434.38)"/></svg>